<?xml version="1.0" encoding="UTF-8"?>
<svg id="Layer_1" xmlns="http://www.w3.org/2000/svg" version="1.1" viewBox="0 0 33.49 46.23">
  <!-- Generator: Adobe Illustrator 29.5.0, SVG Export Plug-In . SVG Version: 2.1.0 Build 137)  -->
  <defs>
    <style>
      .st0 {
        fill: #bbbdbf;
      }

      .st1 {
        fill: #404041;
      }

      .st2 {
        fill: #808184;
      }
    </style>
  </defs>
  <path class="st1" d="M16.75,26.97c.64,0,1.29.25,1.78.74l14.23,14.23c.98.98.98,2.58,0,3.56-.98.98-2.58.98-3.56,0l-12.45-12.45-12.45,12.45c-.98.98-2.58.98-3.56,0-.98-.98-.98-2.58,0-3.56l14.23-14.23c.49-.49,1.14-.74,1.78-.74Z"/>
  <path class="st2" d="M16.75,13.48c.64,0,1.29.25,1.78.74l14.23,14.23c.98.98.98,2.58,0,3.56-.98.98-2.58.98-3.56,0l-12.45-12.45-12.45,12.45c-.98.98-2.58.98-3.56,0-.98-.98-.98-2.58,0-3.56l14.23-14.23c.49-.49,1.14-.74,1.78-.74Z"/>
  <path class="st0" d="M16.75,0c.64,0,1.29.25,1.78.74l14.23,14.23c.98.98.98,2.58,0,3.56-.98.98-2.58.98-3.56,0l-12.45-12.45-12.45,12.45c-.98.98-2.58.98-3.56,0-.98-.98-.98-2.58,0-3.56L14.97.74c.49-.49,1.14-.74,1.78-.74Z"/>
</svg>