<?xml version="1.0" encoding="UTF-8"?>
<svg id="Layer_1" xmlns="http://www.w3.org/2000/svg" version="1.1" viewBox="0 0 129.49 129.17">
  <!-- Generator: Adobe Illustrator 29.5.0, SVG Export Plug-In . SVG Version: 2.1.0 Build 137)  -->
  <defs>
    <style>
      .st0 {
        fill: #dc4497;
      }
    </style>
  </defs>
  <path class="st0" d="M52.17,59.55H7.39c-4.07,0-7.39-3.31-7.39-7.39V7.39C0,3.31,3.31,0,7.39,0h44.78c4.07,0,7.39,3.31,7.39,7.39v44.78c0,4.07-3.31,7.39-7.39,7.39ZM7.39,5.14c-1.24,0-2.25,1.01-2.25,2.25v44.78c0,1.24,1.01,2.25,2.25,2.25h44.78c1.24,0,2.25-1.01,2.25-2.25V7.39c0-1.24-1.01-2.25-2.25-2.25H7.39Z"/>
  <path class="st0" d="M52.17,129.17H7.39c-4.07,0-7.39-3.31-7.39-7.39v-44.78c0-4.07,3.31-7.39,7.39-7.39h44.78c4.07,0,7.39,3.31,7.39,7.39v44.78c0,4.07-3.31,7.39-7.39,7.39ZM7.39,74.76c-1.24,0-2.25,1.01-2.25,2.25v44.78c0,1.24,1.01,2.25,2.25,2.25h44.78c1.24,0,2.25-1.01,2.25-2.25v-44.78c0-1.24-1.01-2.25-2.25-2.25H7.39Z"/>
  <path class="st0" d="M121.79,59.55h-44.78c-4.07,0-7.39-3.31-7.39-7.39V7.39c0-4.07,3.31-7.39,7.39-7.39h44.78c4.07,0,7.39,3.31,7.39,7.39v44.78c0,4.07-3.31,7.39-7.39,7.39ZM77.01,5.14c-1.24,0-2.25,1.01-2.25,2.25v44.78c0,1.24,1.01,2.25,2.25,2.25h44.78c1.24,0,2.25-1.01,2.25-2.25V7.39c0-1.24-1.01-2.25-2.25-2.25h-44.78Z"/>
  <path class="st0" d="M129.49,98.46c0,1.07-.44,2.04-1.13,2.75-.71.71-1.68,1.14-2.76,1.14h-22.75v22.75c0,2.15-1.73,3.89-3.89,3.89s-3.89-1.75-3.89-3.89v-22.75h-22.75c-2.15,0-3.89-1.75-3.89-3.89s1.75-3.91,3.89-3.91h22.75v-22.74c0-2.16,1.75-3.91,3.89-3.91,1.08,0,2.06.44,2.76,1.14.69.71,1.13,1.68,1.13,2.76v22.74h22.75c2.16,0,3.89,1.75,3.89,3.91Z"/>
</svg>