<?xml version="1.0" encoding="UTF-8"?>
<svg id="Layer_1" xmlns="http://www.w3.org/2000/svg" version="1.1" viewBox="0 0 131.78 77.54">
  <!-- Generator: Adobe Illustrator 29.5.0, SVG Export Plug-In . SVG Version: 2.1.0 Build 137)  -->
  <defs>
    <style>
      .st0 {
        fill: #3f4852;
      }
    </style>
  </defs>
  <path class="st0" d="M2.14,50.56c.79.32,2.42,3.11,3.13,4,12.35,15.56,33.09,21.41,52.18,16.88,28.81-6.85,48.18-31.72,59.82-57.31-2.07.96-3.97,2.59-6.02,3.65-1.14.59-2.42.81-3.4-.17-1.17-1.17-1.51-2.9-.27-4.13,1.15-1.14,3.6-2.6,5.03-3.56,4.92-3.3,10.07-6.26,14.97-9.59,2.45-1.23,4.89,1.2,4.04,3.72-3.5,8.07-5.95,16.83-9.33,24.91-.74,1.77-1.61,4.15-4.11,3.28s-1.79-3.3-1.54-5.25l-.3.04c-15.5,30.03-48.37,57.13-84.12,49.07-12.08-2.72-26.49-11.63-32.04-23.08-.65-1.34.56-3.04,1.96-2.47Z"/>
</svg>