<?xml version="1.0" encoding="UTF-8"?>
<svg id="Layer_1" xmlns="http://www.w3.org/2000/svg" version="1.1" viewBox="0 0 185.21 184.08">
  <!-- Generator: Adobe Illustrator 29.5.0, SVG Export Plug-In . SVG Version: 2.1.0 Build 137)  -->
  <defs>
    <style>
      .st0 {
        fill: #fff;
      }

      .st1 {
        fill: #4272b7;
      }
    </style>
  </defs>
  <path class="st1" d="M183.22,111.99c-.31,1.46-.65,2.91-1.03,4.35-.02.07-.04.14-.06.2-9.24,34.86-39.16,62.15-75.06,67.53v-64.55h21.6l4.16-26.81h-25.38s-.39-.36-.39-.39v-18.22c0-6.33,5.47-13.14,12.11-13.14h14.71v-23.16c-3.7-.24-7.37-.98-11.06-1.3-14.38-1.23-29.54-.05-38.45,12.82-8.88,12.82-5.57,28.45-6.19,43.14h-23.3s-.39.36-.39.39v26.29s.36.39.39.39h23.3v64.55c-33.03-5-60.77-28.19-72.31-58.94-.02-.04-.04-.08-.05-.13-1.6-4.28-2.88-8.7-3.82-13.24C-11.61,46.17,46.16-11.61,111.77,2.01c49.97,10.37,81.94,59.87,71.45,109.99Z"/>
  <path class="st0" d="M107.08,74.11v18.22s.36.39.39.39h25.38l-4.16,26.81h-21.6v64.19c-4.72.73-9.55,1.12-14.47,1.12s-9.72-.38-14.42-1.12v-64.19h-23.3s-.39-.36-.39-.39v-26.29s.36-.39.39-.39h23.3c.62-14.69-2.69-30.31,6.19-43.14,8.92-12.87,24.07-14.05,38.45-12.82,3.69.32,7.36,1.06,11.06,1.3v23.16h-14.71c-6.64,0-12.11,6.82-12.11,13.14Z"/>
</svg>