<?xml version="1.0" encoding="UTF-8"?>
<svg id="Layer_1" xmlns="http://www.w3.org/2000/svg" version="1.1" viewBox="0 0 187.61 183.22">
  <!-- Generator: Adobe Illustrator 29.5.0, SVG Export Plug-In . SVG Version: 2.1.0 Build 137)  -->
  <defs>
    <style>
      .st0 {
        fill: #fff;
      }
    </style>
  </defs>
  <path class="st0" d="M144.35,120.53c-7.52,9.09-21.44,13.75-32.96,14.31-.59.48,3.12,5.23,3.58,6.31,1.31,3.07,2.08,8.23,2.31,11.62.34,4.99-1.01,26.33.65,28.67.9,1.27,2.16,1.71,3.54,1.73-8.74,2.7-18.03,4.15-27.66,4.15s-18.83-1.44-27.53-4.12c1.08-.13,4.07-1.82,4.07-2.55v-19.42c-7.35.26-15.18,1.32-22.15-1.67-9.68-4.14-8.97-13.11-15.25-19.94-2.71-2.95-6.4-3.87-7.95-7.46-.59-1.35,2.42-1.75,3.22-1.76,14.03-.09,15.72,18.42,28.57,19.83,4.86.54,9.7-.52,14.17-2.32.05-3.52,1.46-6.67,3.17-9.65,1.28-2.22,4.13-2.86.22-3.39-12.16-1.64-25.4-5.87-32.62-16.5-7.99-11.79-10.16-32.34-4.27-45.36,1.09-2.41,5.61-7.95,5.77-8.94.43-2.6-1.17-4.4-1.42-6.62-.33-2.94.59-16.81,2.84-18.3,4.77-3.15,21.57,7.56,26.76,9.21,15.1-4.11,30.28-3.64,45.4-.04,8.26-3.54,16.67-10.63,26.17-9.08,2.14,5.89,3.49,11.87,2.79,18.2-.25,2.21-1.85,4.02-1.42,6.62.17.99,4.68,6.52,5.77,8.94,6.04,13.34,3.65,36.13-5.77,47.52Z"/>
  <path d="M187.61,85v18.33c-3.6,33.31-27.4,66.75-59.38,78.04-1.87.66-4.48,1.82-6.76,1.8-1.38-.02-2.64-.46-3.54-1.73-1.66-2.34-.31-23.68-.65-28.67-.23-3.38-1-8.55-2.31-11.62-.46-1.08-4.17-5.82-3.58-6.31,11.52-.57,25.44-5.22,32.96-14.31,9.42-11.39,11.81-34.18,5.77-47.52-1.09-2.41-5.61-7.95-5.77-8.94-.43-2.6,1.17-4.4,1.42-6.62.7-6.33-.66-12.31-2.79-18.2-9.5-1.55-17.9,5.53-26.17,9.08-15.12-3.6-30.3-4.07-45.4.04-5.19-1.66-22-12.37-26.76-9.21-2.25,1.49-3.17,15.35-2.84,18.3.24,2.21,1.85,4.02,1.42,6.62-.16.99-4.68,6.52-5.77,8.94-5.89,13.01-3.72,33.56,4.27,45.36,7.21,10.64,20.46,14.87,32.62,16.5,3.9.53,1.05,1.17-.22,3.39-1.71,2.98-3.12,6.13-3.17,9.65-4.47,1.81-9.31,2.86-14.17,2.32-12.85-1.41-14.53-19.92-28.57-19.83-.8,0-3.81.4-3.22,1.76,1.55,3.6,5.24,4.51,7.95,7.46,6.27,6.83,5.57,15.79,15.25,19.94,6.97,2.99,14.8,1.92,22.15,1.67v19.42c0,.73-2.99,2.43-4.07,2.55-.01,0-.02,0-.03,0-4.17.42-18.47-7.13-22.52-9.66C-20.5,133.38-12.32,36.39,57.38,7.18,69.19,2.24,81.41-.04,93.43,0c20.32.07,40.06,6.78,56.2,18.46.08.06.16.11.25.18,20.73,15.1,35.46,38.4,37.73,66.36Z"/>
</svg>