<?xml version="1.0" encoding="UTF-8"?>
<svg id="Layer_1" xmlns="http://www.w3.org/2000/svg" version="1.1" viewBox="0 0 163.97 76.65">
  <!-- Generator: Adobe Illustrator 29.5.0, SVG Export Plug-In . SVG Version: 2.1.0 Build 137)  -->
  <defs>
    <style>
      .st0 {
        fill: #dc4497;
      }
    </style>
  </defs>
  <path class="st0" d="M90.77,52.97h-17.4c-10.23,25.49-44.11,31.96-63.05,11.71C-12.23,40.56,4.66,1.58,37.09.45c29.59,1.11,60.21-1.44,89.68,0,42.67,2.08,51.09,59.77,12.36,73.85-19.46,7.08-40.6-2.39-48.36-21.34ZM124.91,12.29c-10.28,1.34-9.75,16.19-.59,17.39,14.09,1.85,13.18-19.03.59-17.39ZM41.07,32.7v-11.34c0-1.01-1.71-2.75-2.73-3.01s-5.26-.27-6.3,0-2.73,2-2.73,3.01v11.34h-11.07c-1.13,0-2.99,1.59-3.29,2.72-.27,1.05-.28,5.24,0,6.3s2.01,2.72,3.01,2.72h11.34v11.34c0,.76,1.52,2.6,2.26,2.93,1.56.7,5.88.7,7.41-.1.66-.34,2.08-2.14,2.08-2.84v-11.34h11.34c.7,0,2.49-1.42,2.84-2.08.9-1.72.8-5.77-.09-7.5-.41-.81-1.88-2.17-2.75-2.17h-11.34ZM108.22,29.8c-11.36.12-11.24,17.67.23,17.67,11.36,0,11.73-17.8-.23-17.67ZM141.58,30.04c-8.36,1.3-9.33,14.56-.48,17.02,13.59,3.78,15.65-19.37.48-17.02ZM124.37,47.53c-10.51,1.54-8.89,18.64,2.63,17.38,11.38-1.24,9.77-19.2-2.63-17.38Z"/>
</svg>