<?xml version="1.0" encoding="UTF-8"?>
<svg id="Layer_1" xmlns="http://www.w3.org/2000/svg" version="1.1" viewBox="0 0 189.43 189.24">
  <!-- Generator: Adobe Illustrator 29.5.0, SVG Export Plug-In . SVG Version: 2.1.0 Build 137)  -->
  <defs>
    <style>
      .st0 {
        fill: #fff;
      }

      .st1 {
        fill: #2a67b1;
      }
    </style>
  </defs>
  <path class="st1" d="M89.11.15c74.1-4.08,124.53,75.08,88.31,140.46-33.57,60.61-119.19,65.57-159.64,9.22C-25.65,89.34,15.23,4.22,89.11.15Z"/>
  <path class="st0" d="M151.3,151.34h-22.85v-43.29c0-7.66-7.85-12.77-14.98-12.4-7.34.38-14.63,6.31-14.63,14.01v41.68h-22.85v-75.32h21.57v10.62c5.02-6.21,12.19-10.66,20.21-11.82,10.68-1.54,22.96,2.51,28.66,12.04,1.74,2.91,4.89,10.2,4.89,13.46v51.02Z"/>
  <rect class="st0" x="39.61" y="76.02" width="23.5" height="75.32"/>
  <path class="st0" d="M48.86,38.12c22.43-3.04,19.7,31.62-1.14,26.08-13.84-3.69-12.04-24.29,1.14-26.08Z"/>
</svg>