<?xml version="1.0" encoding="UTF-8"?>
<svg id="Layer_1" xmlns="http://www.w3.org/2000/svg" version="1.1" viewBox="0 0 142.71 128.17">
  <!-- Generator: Adobe Illustrator 29.5.0, SVG Export Plug-In . SVG Version: 2.1.0 Build 137)  -->
  <defs>
    <style>
      .st0 {
        fill: #dc4497;
      }
    </style>
  </defs>
  <path class="st0" d="M10.45.46c15.01.69,31.34-1.21,46.2-.1.81.06,1.4.14,2.19.35,6.52,1.74,9.12,11.44,13.04,15.81.8.9,2.36,1.26,3.49,1.58l58.3.02c6.87.59,8.67,4.66,9.04,10.93v89.72c-.32,4.29-2.11,7.95-6.59,8.94-42.38.93-84.91.12-127.35.41-4.62-.4-7.24-3.17-8.31-7.54C-.47,84.53.34,48.34.05,12.24.55,5.99,3.99,1.23,10.45.46ZM14.88,30.24c-4.02.92-5.64,3.75-5.95,7.68v73.24c.27,3.62,1.61,6.2,5.07,7.6l113.33.16c2.78-.17,5.15-2.23,5.95-4.83l.23-77.77c-.2-3.37-3.26-5.89-6.5-6.18l-112.14.09Z"/>
  <path class="st0" d="M61.8,52.12l48.69-.06c8.65,1,8.97,12.49.64,14.2h-49.71c-8.29-1.55-8.12-13.08.38-14.15Z"/>
  <path class="st0" d="M61.8,80.02l48.69-.06c8.65,1,8.97,12.49.64,14.2h-49.71c-8.29-1.55-8.12-13.08.38-14.15Z"/>
  <path class="st0" d="M34.53,51.79c11.81-2,12.64,16.56-.05,14.79-7.54-1.05-7.79-13.46.05-14.79Z"/>
  <path class="st0" d="M30.92,81.62c6.93-6.84,17.89,3.84,10.52,10.99-7,6.79-17.73-3.87-10.52-10.99Z"/>
</svg>