<?xml version="1.0" encoding="UTF-8"?>
<svg id="Layer_1" xmlns="http://www.w3.org/2000/svg" version="1.1" viewBox="0 0 137.04 137.04">
  <!-- Generator: Adobe Illustrator 29.5.0, SVG Export Plug-In . SVG Version: 2.1.0 Build 137)  -->
  <defs>
    <style>
      .st0 {
        fill: #dc4497;
      }
    </style>
  </defs>
  <path class="st0" d="M80.66,0l1.08,2.24,2.5,19.95,5.94,2.33,16.33-12.59h2.33c1.97,2.72,16.11,14.83,16.45,16.79.1.58.07,1.19-.22,1.72l-12.64,16.27,2.24,5.76,20.12,2.66,2.24,1.08v24.21l-2.25,1.08-20.12,2.66-2.24,5.76,12.64,16.27c.28.53.32,1.14.22,1.72-.34,1.95-14.44,14.03-16.45,16.8h-2.34s-16.31-12.61-16.31-12.61l-5.95,2.34-2.5,19.96-1.09,2.63h-24.27c-2.39-7.14-2.25-15.14-3.59-22.58l-5.95-2.34-16.32,12.61h-2.33c-1.97-2.72-16.11-14.83-16.45-16.79-.1-.58-.07-1.19.22-1.72l12.52-16.04-2.12-5.99-20.12-2.66-2.25-1.08v-24.21c.77-.66,1.69-.87,2.65-1.06,6.25-1.28,13.28-1.31,19.6-2.51l2.35-5.93-12.64-16.28v-2.32c2.73-1.96,14.87-16.07,16.84-16.41.58-.1,1.2-.06,1.74.21l16.31,12.61,5.78-2.23c1.47-6.35,1.43-13.31,2.69-19.65.19-.96.41-1.88,1.07-2.65h24.27ZM78.28,3.93l-19.1-.36-3.16,21.16-8.54,3.69-2.05-.13-15.94-12.24-13.3,13.43,12.32,16.49c.2.59.04,1.11-.11,1.67-.17.65-3.11,7.62-3.38,7.96-.62.77-1.95.78-2.96.96-5.65,1-11.8,1.17-17.51,2.06l-.65.92v18.55s20.88,2.7,20.88,2.7l3.7,8.52-.13,2.04-12.28,16.38,13.13,12.87,16.57-12.28c2.2-.71,7.38,2.97,9.93,3.32,1.21.81,2.55,17.83,3.06,20.47l.92.64h18.6s2.64-20.6,2.64-20.6c.14-.41.42-.59.77-.8s7.43-3.03,7.85-3.12c.7-.14,1.38-.24,2.05.13l16.07,12.11,13.22-13.29-12.27-16.19c-.24-.56-.21-1.1-.09-1.68.09-.45,3.14-7.87,3.43-8.22.53-.64,2.52-.84,3.41-1,5.64-1,11.79-1.37,17.51-1.98.44-.09.36-.67.44-.99.66-2.36.43-13.47.22-16.42-.05-.72-.13-1.43-.46-2.08l-20.83-2.75-3.7-8.52.13-2.04,11.96-15.42.19-1-13.01-12.82-16.56,12.26c-.56.24-1.1.21-1.68.09-2.01-.4-5.8-3.07-8.24-3.42-.65-.53-.85-2.51-1-3.4-1.02-5.75-1.37-11.87-2.04-17.69Z"/>
  <path class="st0" d="M65.7,30.57c27.02-2.06,47.57,24.62,38.63,50.23-9.53,27.31-45.68,34.17-64.59,12.12-20.13-23.46-4.76-60.01,25.96-62.35ZM64.52,34.47c-25.22,2.56-38.59,32.32-24.12,53.1,14.51,20.84,46.08,19.32,58.19-3.13,13.17-24.42-6.64-52.76-34.06-49.97Z"/>
  <path class="st0" d="M66.09,37.6c24.89-1.94,41.65,24.96,28.98,46.46-11.5,19.52-39.84,20.09-52.32,1.17s.14-45.83,23.34-47.64ZM64.91,41.5c-12.08,1.29-22.44,12.28-23.41,24.29-.36,4.44.8,12.66,3.72,16.19.43.52.35.45.76-.01.62-.7,1.03-1.71,1.77-2.53,3.36-3.75,7.37-6.96,12.27-8.45,4.04-1.23,3.03.58,6.21,1.36,5.15,1.26,6.55-1.98,8.66-1.97,1.08,0,4.39,1.36,5.51,1.89,4.56,2.17,8.3,5.9,11.01,10.1,12.1-19.6-3.61-43.32-26.51-40.87ZM60.99,74.64c-4.22.56-11.22,7.08-12.77,11.12,9.92,12.73,30.41,12.54,40.62.24-.72-4.05-10.09-11.92-13.83-11.43-1.82.24-3.67,2.02-6.69,1.98-2.66-.04-5.56-2.14-7.34-1.91Z"/>
  <path class="st0" d="M67.26,45.39c10.12-.94,17.11,10.6,11.04,18.83-5.15,6.98-15.73,6.56-20.13-1.01-4.24-7.31.63-17.03,9.09-17.82ZM66.85,49.29c-9.52,1.62-8.07,16.79,2.2,16.28,10.91-.55,9.75-18.31-2.2-16.28Z"/>
</svg>