<?xml version="1.0" encoding="UTF-8"?>
<svg id="Layer_1" xmlns="http://www.w3.org/2000/svg" version="1.1" viewBox="0 0 131.75 131.77">
  <!-- Generator: Adobe Illustrator 29.5.0, SVG Export Plug-In . SVG Version: 2.1.0 Build 137)  -->
  <defs>
    <style>
      .st0 {
        fill: #dc4497;
      }
    </style>
  </defs>
  <path class="st0" d="M99.46,67.99c0,10.63-1.66,21.25-4.62,31.43-2.9-.59-5.81-1.14-8.74-1.56-16.26-2.33-33.07-1.84-49.11,1.57-1.67-5.44-2.91-11.03-3.67-16.68-.65-4.88-1.05-9.83-1.03-14.75h67.17Z"/>
  <path class="st0" d="M32.29,63.67c-.02-2.04.01-4.09.15-6.12.16-2.4.44-5.08.74-7.48.74-5.94,2.05-11.99,3.82-17.69,2.25.45,4.51.93,6.78,1.28,16.96,2.62,34.28,2.22,51.07-1.27,2.97,10.12,4.58,20.69,4.62,31.28H32.29Z"/>
  <path class="st0" d="M82.12,8.22c4,4.37,7.51,10.48,9.78,15.95.42,1,1.21,2.77,1.45,3.74.04.17.13.24-.08.37-.24.15-4.08.78-4.73.89-14.16,2.38-29.13,2.43-43.33.31-2.3-.34-4.56-.89-6.87-1.13,2.16-6.26,5.21-12.49,9.31-17.71,9.87-12.56,23.13-14.78,34.46-2.42Z"/>
  <path class="st0" d="M93.41,103.6c-3.04,8.2-7.35,16.83-14.06,22.63-8.68,7.5-18.71,7.38-27.24-.28-6.54-5.87-10.71-14.16-13.76-22.28.01-.16,1.93-.54,2.27-.61,14.93-2.82,31.18-3.01,46.19-.72,2.21.34,4.43.76,6.6,1.26Z"/>
  <path class="st0" d="M27.82,67.99c.19,1.41.06,2.84.15,4.25.39,6.71,1.22,13.44,2.64,19.99.58,2.68,1.24,5.4,2.11,7.97l-.24.19c-6.3,1.58-12.53,3.51-18.55,5.93C5.4,95.52.42,81.82.14,67.99h27.68Z"/>
  <path class="st0" d="M131.61,67.99c.05,3.2-.36,6.4-.91,9.54-1.82,10.39-6.35,20.55-12.88,28.78-6.06-2.38-12.29-4.44-18.65-5.89-.21-.22.75-3,.88-3.51.55-2.17,1.06-4.38,1.5-6.57,1.46-7.36,2.14-14.85,2.37-22.35h27.68Z"/>
  <path class="st0" d="M131.75,63.67h-27.97c.01-.22.14-.41.13-.63-.35-8.43-1.21-16.8-3.09-25.03-.51-2.22-1.23-4.39-1.66-6.62,6.36-1.5,12.57-3.53,18.64-5.9,7.35,9.29,12.13,20.82,13.48,32.65.21,1.84.21,3.73.45,5.53Z"/>
  <path class="st0" d="M27.97,63.67H0c.22-1.62.26-3.32.43-4.97,1.28-11.99,6.01-23.78,13.47-33.18,3.47,1.21,6.91,2.57,10.42,3.66,2.46.76,5.54,1.26,7.85,2.1.16.06.48.14.51.32-2.17,7.21-3.59,14.69-4.29,22.21-.27,2.84-.31,5.66-.43,8.51-.02.49-.31.89,0,1.36Z"/>
  <path class="st0" d="M114.89,109.8c-3.11,3.65-6.84,6.98-10.77,9.77-6.68,4.76-14.28,8.27-22.24,10.26,3.5-3.18,6.49-6.8,9-10.82,2.81-4.5,5.01-9.37,6.73-14.38.38-.25,6.43,1.52,7.33,1.78,3.36.99,6.66,2.18,9.95,3.39Z"/>
  <path class="st0" d="M81.88,1.97c12.69,3.11,24.39,10.2,33.01,19.96-5.55,2.21-11.34,3.93-17.16,5.34-1.57-4.27-3.36-8.45-5.62-12.41-2.75-4.83-6.08-9.19-10.23-12.9Z"/>
  <path class="st0" d="M49.88,1.97c-1.48,1.43-2.98,2.83-4.32,4.4-5.23,6.08-8.76,13.43-11.53,20.91-5.82-1.42-11.59-3.14-17.16-5.35C25.49,12.16,37.19,5.11,49.88,1.97Z"/>
  <path class="st0" d="M34.15,104.62c2.92,8.47,7.24,16.59,13.49,23.06l2.38,2.15c-12.76-3.06-24.45-10.2-33.15-19.96,3.28-1.32,6.66-2.49,10.06-3.49.88-.26,6.94-2,7.22-1.75Z"/>
</svg>