<?xml version="1.0" encoding="UTF-8"?>
<svg id="Layer_1" xmlns="http://www.w3.org/2000/svg" version="1.1" viewBox="0 0 700 699.08">
  <!-- Generator: Adobe Illustrator 29.5.0, SVG Export Plug-In . SVG Version: 2.1.0 Build 137)  -->
  <defs>
    <style>
      .st0 {
        fill: #fff;
      }
    </style>
  </defs>
  <path d="M345.39.04c275.66-4.2,447.02,300.7,301.65,535.3-129.08,208.32-432.83,220.1-578.18,22.48C-100.32,327.78,61.41,4.37,345.39.04ZM466.9,124.74c-65-3.83-157.73-13.05-177.43,67.9-1.5,6.16-5.24,25.6-5.24,30.87v81.78h-80.72v87.09h77.53l5.31,220.91h93.46v-218.78h70.1l16.57-86.55-2.77-4.78h-81.78c2.55-25.09-4.59-61.53,3.07-85.08,3.18-9.78,27.14-19,36.23-19h44.61c4.83-2.95,1.06-4.57,1.06-5.31v-69.03Z"/>
  <path class="st0" d="M466.9,124.74v69.03c0,.74,3.77,2.36-1.06,5.31h-44.61c-9.09,0-33.05,9.23-36.23,19-7.66,23.55-.52,59.99-3.07,85.08h81.78l2.77,4.78-16.57,86.55h-70.1v218.78h-93.46l-5.31-220.91h-77.53v-87.09h80.72v-81.78c0-5.27,3.74-24.71,5.24-30.87,19.7-80.96,112.44-71.73,177.43-67.9Z"/>
</svg>