<?xml version="1.0" encoding="UTF-8"?>
<svg id="Layer_1" xmlns="http://www.w3.org/2000/svg" version="1.1" viewBox="0 0 700.85 701.27">
  <!-- Generator: Adobe Illustrator 29.5.0, SVG Export Plug-In . SVG Version: 2.1.0 Build 137)  -->
  <defs>
    <style>
      .st0 {
        fill: #fff;
      }
    </style>
  </defs>
  <path d="M580.98,86.13c193.24,166.55,144.65,480.44-86.81,584.16C252.28,778.67-18.54,588.1,1,324.98,22.31,37.89,361.82-102.76,580.98,86.13ZM160.27,144.07c-42.66,49.05,28.43,113.87,73.52,69.06,48.33-48.02-28.52-120.8-73.52-69.06ZM378.6,300.49v-32.47c0-.39-1.16-2.25-1.68-2.57l-80.24-.43-1.79,2.2.8,275.02h84.91c.46-1.83.9-3.52,1.05-5.45,3.47-44.11-2.08-93.12-.1-137.95,1.45-32.8,8.33-61.37,46.52-64.37,35.97-2.83,47.14,21.82,49.48,53.39l.1,153.24c1.06.52,2.26.89,3.43,1.04,24.17,3.1,54.1-2.14,78.9.16,3.65.16,4.48-3.39,4.49-6.5-4.9-65,8.66-142.21-5.53-205.35-12.75-56.72-58.73-79.69-114.78-71.8-27.71,3.9-48.8,20.46-65.55,41.84ZM156.33,542.24h82.92l2.05-2.95v-271.86c-.59-2.84-3.62-2.75-6-2.95-19.95-1.69-53.84-1.36-74.01,0-2.79.19-6.86-.24-6.96,3.49-.19,83.87,1.96,167.97.55,251.85-.12,7.13-3.53,16.11,1.45,22.43Z"/>
  <path class="st0" d="M378.6,300.49c16.75-21.38,37.84-37.94,65.55-41.84,56.05-7.89,102.03,15.08,114.78,71.8,14.19,63.13.63,140.35,5.53,205.35,0,3.11-.83,6.66-4.49,6.5-24.8-2.3-54.73,2.94-78.9-.16-1.17-.15-2.38-.52-3.43-1.04l-.1-153.24c-2.33-31.57-13.5-56.22-49.48-53.39-38.19,3.01-45.07,31.57-46.52,64.37-1.98,44.83,3.57,93.84.1,137.95-.15,1.92-.59,3.62-1.05,5.45h-84.91l-.8-275.02,1.79-2.2,80.24.43c.52.32,1.68,2.18,1.68,2.57v32.47Z"/>
  <path class="st0" d="M156.33,542.24c-4.98-6.32-1.57-15.3-1.45-22.43,1.41-83.88-.74-167.98-.55-251.85.1-3.72,4.17-3.3,6.96-3.49,20.17-1.36,54.06-1.68,74.01,0,2.38.2,5.41.11,6.01,2.95v271.86s-2.06,2.95-2.06,2.95h-82.92Z"/>
  <path class="st0" d="M160.27,144.07c45-51.74,121.86,21.04,73.52,69.06-45.1,44.81-116.19-20-73.52-69.06Z"/>
</svg>